<svg xmlns="http://www.w3.org/2000/svg" width="24" height="24" viewBox="0 0 48 48">
  <metadata><?xpacket begin="﻿" id="W5M0MpCehiHzreSzNTczkc9d"?>
<x:xmpmeta xmlns:x="adobe:ns:meta/" x:xmptk="Adobe XMP Core 5.6-c138 79.159824, 2016/09/14-01:09:01        ">
   <rdf:RDF xmlns:rdf="http://www.w3.org/1999/02/22-rdf-syntax-ns#">
      <rdf:Description rdf:about=""/>
   </rdf:RDF>
</x:xmpmeta>
                                                                                                    
                                                                                                    
                                                                                                    
                                                                                                    
                                                                                                    
                                                                                                    
                                                                                                    
                                                                                                    
                                                                                                    
                                                                                                    
                                                                                                    
                                                                                                    
                                                                                                    
                                                                                                    
                                                                                                    
                                                                                                    
                                                                                                    
                                                                                                    
                                                                                                    
                                                                                                    
                           
<?xpacket end="w"?></metadata>
<defs>
    <style>
      .cls-1 {
        fill: #595959;
        fill-rule: evenodd;
      }
    </style>
  </defs>
  <path id="_3" data-name="3" class="cls-1" d="M16,3H44a1,1,0,0,1,0,2H16A1,1,0,0,1,16,3Zm0,20H44a1,1,0,0,1,0,2H16A1,1,0,0,1,16,23ZM5,0H9a2,2,0,0,1,2,2V6A2,2,0,0,1,9,8H5A2,2,0,0,1,3,6V2A2,2,0,0,1,5,0ZM6,2H8A1,1,0,0,1,9,3V5A1,1,0,0,1,8,6H6A1,1,0,0,1,5,5V3A1,1,0,0,1,6,2ZM5,20H9a2,2,0,0,1,2,2v4a2,2,0,0,1-2,2H5a2,2,0,0,1-2-2V22A2,2,0,0,1,5,20Zm1,2H8a1,1,0,0,1,1,1v2a1,1,0,0,1-1,1H6a1,1,0,0,1-1-1V23A1,1,0,0,1,6,22ZM5,40H9a2,2,0,0,1,2,2v4a2,2,0,0,1-2,2H5a2,2,0,0,1-2-2V42A2,2,0,0,1,5,40Zm1,2H8a1,1,0,0,1,1,1v2a1,1,0,0,1-1,1H6a1,1,0,0,1-1-1V43A1,1,0,0,1,6,42Zm10,1H44a1,1,0,0,1,0,2H16A1,1,0,0,1,16,43Z"/>
</svg>
